<?xml version="1.0" encoding="UTF-8"?>
<svg id="Layer_2" data-name="Layer 2" xmlns="http://www.w3.org/2000/svg" viewBox="0 0 93.3 93.3">
  <defs>
    <style>
      .cls-1 {
        fill: none;
        stroke: #ffffff;
        stroke-miterlimit: 10;
        stroke-width: 2px;
      }
    </style>
  </defs>
  <g id="Layer_1-2" data-name="Layer 1">
    <g>
      <g>
        <path class="cls-1" d="m81.42,52.83c-4.04,1.84-8.96,1.08-12.27-2.25-4.24-4.28-4.2-11.18.08-15.42,2.61-2.58,6.19-3.57,9.55-2.99-1.55-3.41-3.66-6.62-6.34-9.49-.24-.26-.49-.52-.74-.77s-.51-.51-.77-.75c-13.8-13.14-35.64-13.01-49.28.49-13.64,13.5-14,35.34-1,49.27.24.26.49.52.74.77s.51.51.77.75c13.8,13.14,35.64,13.01,49.28-.49,5.44-5.39,8.77-12.1,9.98-19.12Z"/>
        <path class="cls-1" d="m80.28,15.51l-7.55,7.47c-.09-.1-.18-.2-.29-.3-.23-.27-.49-.52-.74-.78-.25-.25-.51-.51-.77-.75-.1-.1-.2-.2-.3-.29l7.51-7.42,2.14,2.07Z"/>
        <path class="cls-1" d="m22.29,73.26l-7.02,6.94-2.11-2.1,7.03-6.96c.33.37.68.73,1.03,1.08s.7.7,1.07,1.04Z"/>
      </g>
      <rect class="cls-1" x="5.15" y="5.15" width="83" height="83"/>
      <polygon class="cls-1" points="23.29 88.15 5.15 88.15 5.15 70.15 13.16 78.1 15.27 80.2 23.29 88.15"/>
      <polygon class="cls-1" points="88.29 5.69 88.15 23.15 80.28 15.51 78.14 13.44 70.15 5.69 88.29 5.69"/>
      <rect class="cls-1" x="1" y="1" width="91.3" height="91.3"/>
    </g>
  </g>
</svg>